<?xml version="1.0" encoding="UTF-8"?>
<svg id="Layer_1" data-name="Layer 1" xmlns="http://www.w3.org/2000/svg" viewBox="0 0 3000 2353.67">
  <defs>
    <style>
      .cls-1 {
        fill: #000;
        stroke-width: 0px;
      }
    </style>
  </defs>
  <path class="cls-1" d="M1468.05,525.05c-60.5,204.65-257.99,342.71-463.45,378.98-24.65,390.42-20.3,1295.26-497.2,1425.41-177.4,48.41-369.69-30.31-420.62-216.92-60.36-221.17,82.87-431.07,295.24-496.46-30.36,42.94-40.2,97.61-26.37,148.3,18.86,69.12,84.22,90.89,148.72,73.28,267.25-72.94,357-696.49,416.86-930.67-108.7,9.86-218.88,5.27-327.79,5.29-24.68,199.82-109.67,477.99-330.84,538.35-110.59,30.18-221.6-13.79-253.67-131.28-73.56-269.55,325.18-559.09,547.4-624.68,0-54.46,14.43-110.38,47.1-153.96,6.71,42.73,8.81,86.71,8.61,131.33,214.26-58.47,438.81,11.44,653.07-47.03,76.03-20.75,142.84-66.21,190.16-128.64l10.68,11.94,2.1,16.76ZM350.9,948.76c-99.07,27.04-276.25,112.52-240.41,243.84,16.98,62.2,86.31,80.41,143.91,64.7,156.66-42.76,239.16-193.99,270.76-341.25-58.44,3.57-116.66,16.99-174.26,32.71Z"/>
  <path class="cls-1" d="M2579.69,1169.77c17.61,64.51,66.21,142.84,142.24,122.09,69.12-18.86,107.01-115.85,121.87-179.31,45.49,202.95-18.75,584.38-253.74,648.51-126.71,34.58-215.96-74.74-245.51-183.02-52.82-193.53-26.46-396.28,9.32-591.71-42.93,24.09-90.06,41.91-138.44,55.11-23.04,6.29-49.01,10.9-72.05,17.19-86.66,335.56-168.46,870.31-562.42,977.82-179.7,49.04-365.08-31.56-416.01-218.18-57.85-211.96,93.76-409.29,293.57-466.29-20.1,35.19-21.56,75.2-11.5,112.06,19.49,71.42,80.86,96.75,147.68,78.52,161.27-44.01,290.25-297.05,344.47-443.05-26.6,2.31-52.57,6.92-77.91,13.84-73.72,20.12-146.4,62.23-180.74,135.97-13.2-21.15-26.4-42.3-32.69-65.34-37.1-135.93,82.7-223.08,177.15-248.86,46.08-12.58,135.72-19.71,182.64-20.14,70.34-204.86,141.1-417.26,271.14-593.85l-3.56-3.98c-132.77,130.3-259.04,320.72-445.65,371.65-126.71,34.58-269.14,11.57-307.5-128.97-22.64-82.94,6.67-175.1,64.47-235.44,41.71,134.67,163.19,153.5,289.9,118.92,188.92-51.56,416.98-222.72,560.02-306.32l26.18,5.23c-169.62,222.05-246.44,502.94-293.94,773.35,52.78,2.92,105.35-4,156.04-17.83,18.43-5.03,36.23-12.36,53.41-22,53.37-239.83,247.86-788.01,508.19-859.06,55.29-15.09,89.02,17.79,102.22,66.17,73.56,269.55-224,657.72-431.75,803.54-6.06,95.72-2.27,191.23,22.88,283.39ZM2766.78,195.36c-99.07,27.04-203.08,498.53-219.4,602.01,131.73-70.61,288.55-430.27,248.94-575.41-3.77-13.82-11.11-31.63-29.54-26.6Z"/>
</svg>